<svg xmlns="http://www.w3.org/2000/svg" viewBox="0 0 24 24" id="archlinux"><path fill="#1793D1" d="m9.321 18.304.003-.121c.061-2.437 1.328-4.312 2.83-4.184 1.502.126 2.669 2.207 2.61 4.643-.012.459-.063.9-.154 1.309 2.718.532 5.637 1.882 9.389 4.048-.739-1.362-1.4-2.59-2.032-3.759-.994-.77-2.03-1.773-4.142-2.857 1.452.378 2.493.812 3.303 1.3C14.714 6.746 14.196 5.159 11.997 0c-1.069 2.618-1.712 4.33-2.901 6.872.73.774 1.625 1.673 3.079 2.69-1.563-.643-2.629-1.289-3.426-1.958C7.227 10.78 4.841 15.304 0 24c3.805-2.196 6.754-3.549 9.502-4.067a6.94 6.94 0 0 1-.181-1.629z"></path><path d="M11.39 1.002 11.391 1z"></path></svg>