<?xml version="1.0" standalone="no"?>
<!DOCTYPE svg PUBLIC "-//W3C//DTD SVG 20010904//EN"
 "http://www.w3.org/TR/2001/REC-SVG-20010904/DTD/svg10.dtd">
<svg version="1.0" xmlns="http://www.w3.org/2000/svg"
 width="512.000000pt" height="512.000000pt" viewBox="0 0 512.000000 512.000000"
 preserveAspectRatio="xMidYMid meet">

<g transform="translate(0.000000,512.000000) scale(0.100000,-0.100000)"
fill="#000000" stroke="none">
<path d="M2400 5084 c-536 -46 -965 -207 -1377 -515 -126 -95 -377 -346 -472
-472 -272 -364 -432 -750 -497 -1202 -24 -165 -24 -505 0 -670 65 -452 225
-838 497 -1202 94 -125 346 -377 469 -469 370 -277 748 -434 1205 -500 165
-24 505 -24 670 0 457 66 835 223 1205 500 122 91 375 344 466 466 277 370
434 748 500 1205 24 165 24 505 0 670 -66 457 -223 835 -500 1205 -91 122
-344 375 -466 466 -362 271 -741 431 -1174 495 -125 18 -428 32 -526 23z m453
-569 c712 -108 1316 -604 1565 -1285 42 -115 87 -295 103 -410 17 -122 17
-398 0 -520 -100 -727 -600 -1346 -1291 -1598 -115 -42 -295 -87 -410 -103
-122 -17 -398 -17 -520 0 -727 100 -1346 600 -1598 1291 -42 115 -87 295 -103
410 -17 122 -17 398 0 520 100 727 600 1346 1291 1598 122 44 300 88 410 101
52 6 111 13 130 15 65 8 324 -4 423 -19z"/>
<path d="M2432 3921 c-74 -28 -115 -55 -165 -111 -54 -60 -85 -124 -98 -199
-12 -74 -12 -2029 0 -2103 21 -124 111 -242 228 -296 51 -23 71 -26 163 -26
99 -1 109 1 172 32 114 56 199 168 219 291 12 74 12 2029 0 2103 -21 125 -112
243 -228 295 -80 36 -215 42 -291 14z"/>
</g>
</svg>
