<?xml version="1.0"?>
<svg width="30.143" height="30.143" xmlns="http://www.w3.org/2000/svg" xmlns:svg="http://www.w3.org/2000/svg" version="1.1" xml:space="preserve">

 <g class="layer">
  <title>Layer 1</title>
  <g id="svg_1">
   <path d="m20.03,2.36l0,3.82c3.49,1.8 5.87,5.43 5.87,9.62c0,5.98 -4.85,10.83 -10.83,10.83c-5.98,0 -10.83,-4.85 -10.83,-10.83c0,-3.84 2.01,-7.21 5.03,-9.14l0,-3.97c-5.02,2.23 -8.54,7.26 -8.54,13.11c0,7.92 6.42,14.34 14.34,14.34c7.93,0 14.34,-6.42 14.34,-14.34c0,-6.18 -3.91,-11.42 -9.38,-13.44z" fill="#f9f9f9" id="svg_2"/>
   <path d="m14.79,17.65c1.58,0 1.74,-0.93 1.74,-2.07l0,-13.5c0,-1.15 -0.16,-2.08 -1.74,-2.08c-1.57,0 -1.73,0.93 -1.73,2.08l0,13.5c0,1.14 0.16,2.07 1.73,2.07z" fill="#f9f9f9" id="svg_3"/>
  </g>
 </g>
</svg>