<?xml version="1.0"?>
<svg width="54" height="54" xmlns="http://www.w3.org/2000/svg" xmlns:svg="http://www.w3.org/2000/svg" version="1.1" xml:space="preserve">

 <g class="layer">
  <title>Layer 1</title>
  <g id="svg_1">
   <path d="m51.22,21l-5.05,0c-0.81,0 -1.48,-0.45 -1.79,-1.2s-0.16,-1.54 0.42,-2.11l3.57,-3.57c0.52,-0.53 0.81,-1.23 0.81,-1.97c0,-0.74 -0.29,-1.44 -0.81,-1.96l-4.55,-4.56c-1.05,-1.05 -2.89,-1.05 -3.94,0l-3.57,3.57c-0.57,0.58 -1.36,0.74 -2.11,0.42c-0.75,-0.31 -1.2,-0.98 -1.2,-1.79l0,-5.05c0,-1.53 -1.25,-2.78 -2.78,-2.78l-6.44,0c-1.53,0 -2.78,1.25 -2.78,2.78l0,5.05c0,0.81 -0.45,1.48 -1.2,1.79c-0.75,0.32 -1.54,0.16 -2.11,-0.42l-3.57,-3.57c-1.05,-1.05 -2.89,-1.05 -3.93,0l-4.56,4.55c-0.52,0.53 -0.81,1.23 -0.81,1.97c0,0.74 0.29,1.44 0.81,1.97l3.57,3.57c0.58,0.57 0.73,1.36 0.42,2.11s-0.98,1.2 -1.79,1.2l-5.05,0c-1.53,0 -2.78,1.25 -2.78,2.78l0,6.44c0,1.53 1.25,2.78 2.78,2.78l5.05,0c0.81,0 1.48,0.45 1.79,1.2s0.16,1.54 -0.42,2.11l-3.57,3.57c-0.52,0.53 -0.81,1.23 -0.81,1.97c0,0.74 0.29,1.44 0.81,1.96l4.55,4.56c1.06,1.05 2.89,1.05 3.94,0l3.57,-3.57c0.57,-0.58 1.36,-0.74 2.11,-0.42c0.75,0.31 1.2,0.98 1.2,1.79l0,5.05c0,1.53 1.25,2.78 2.78,2.78l6.44,0c1.53,0 2.78,-1.25 2.78,-2.78l0,-5.05c0,-0.81 0.45,-1.48 1.2,-1.79c0.75,-0.32 1.54,-0.16 2.11,0.42l3.57,3.57c1.05,1.05 2.88,1.05 3.93,0l4.56,-4.56c0.52,-0.52 0.81,-1.22 0.81,-1.96c0,-0.74 -0.29,-1.44 -0.81,-1.97l-3.58,-3.57c-0.57,-0.57 -0.73,-1.36 -0.42,-2.11s0.99,-1.2 1.8,-1.2l5.05,0c1.53,0 2.78,-1.25 2.78,-2.78l0,-6.44c0,-1.53 -1.25,-2.78 -2.78,-2.78zm0.78,9.22c0,0.43 -0.35,0.78 -0.78,0.78l-5.05,0c-1.63,0 -3.02,0.93 -3.64,2.43c-0.62,1.5 -0.3,3.15 0.85,4.3l3.57,3.57c0.31,0.3 0.31,0.8 0,1.1l-4.55,4.55c-0.3,0.31 -0.8,0.31 -1.1,0l-3.57,-3.57c-1.15,-1.15 -2.8,-1.47 -4.3,-0.85c-1.5,0.62 -2.43,2.01 -2.43,3.64l0,5.05c0,0.43 -0.35,0.78 -0.78,0.78l-6.44,0c-0.43,0 -0.78,-0.35 -0.78,-0.78l0,-5.05c0,-1.63 -0.93,-3.02 -2.43,-3.64c-0.5,-0.21 -1.02,-0.31 -1.53,-0.31c-1.02,0 -2,0.4 -2.77,1.16l-3.57,3.57c-0.3,0.31 -0.8,0.31 -1.1,0l-4.55,-4.55c-0.31,-0.3 -0.31,-0.8 0,-1.1l3.57,-3.57c1.15,-1.15 1.47,-2.8 0.85,-4.3c-0.62,-1.5 -2.01,-2.43 -3.64,-2.43l-5.05,0c-0.43,0 -0.78,-0.35 -0.78,-0.78l0,-6.44c0,-0.43 0.35,-0.78 0.78,-0.78l5.05,0c1.63,0 3.02,-0.93 3.64,-2.43c0.62,-1.5 0.3,-3.15 -0.85,-4.3l-3.57,-3.57c-0.31,-0.3 -0.31,-0.8 0,-1.1l4.55,-4.55c0.3,-0.31 0.8,-0.31 1.1,0l3.57,3.57c1.15,1.14 2.8,1.47 4.3,0.85c1.5,-0.62 2.43,-2.01 2.43,-3.64l0,-5.05c0,-0.43 0.35,-0.78 0.78,-0.78l6.44,0c0.43,0 0.78,0.35 0.78,0.78l0,5.05c0,1.63 0.93,3.02 2.43,3.64c1.5,0.62 3.15,0.3 4.3,-0.85l3.57,-3.57c0.3,-0.31 0.8,-0.31 1.1,0l4.55,4.55c0.31,0.3 0.31,0.8 0,1.1l-3.57,3.57c-1.15,1.15 -1.47,2.8 -0.85,4.3c0.62,1.5 2.01,2.43 3.64,2.43l5.05,0c0.43,0 0.78,0.35 0.78,0.78l0,6.44z" fill="#ffffff" id="svg_2"/>
   <path d="m27,18c-4.96,0 -9,4.04 -9,9s4.04,9 9,9s9,-4.04 9,-9s-4.04,-9 -9,-9zm0,16c-3.86,0 -7,-3.14 -7,-7s3.14,-7 7,-7s7,3.14 7,7s-3.14,7 -7,7z" fill="#ffffff" id="svg_3"/>
  </g>
 </g>
</svg>