<?xml version="1.0" encoding="iso-8859-1"?>
<!-- Uploaded to: SVG Repo, www.svgrepo.com, Generator: SVG Repo Mixer Tools -->
<!DOCTYPE svg PUBLIC "-//W3C//DTD SVG 1.1//EN" "http://www.w3.org/Graphics/SVG/1.1/DTD/svg11.dtd">
<svg fill="#000000" version="1.1" id="Capa_1" xmlns="http://www.w3.org/2000/svg" xmlns:xlink="http://www.w3.org/1999/xlink" 
	 width="800px" height="800px" viewBox="0 0 31.344 31.344"
	 xml:space="preserve">
<g>
	<g>
		<path d="M23.724,27.417l-2.418-1.813c-0.276-0.207-0.782-0.377-1.129-0.377h-3.251v0.422c0,0.69-0.562,1.254-1.254,1.254
			c-0.691,0-1.254-0.563-1.254-1.254v-0.422h-3.251c-0.346,0-0.853,0.17-1.13,0.377L7.62,27.417
			c-0.277,0.206-0.222,0.375,0.124,0.375h15.855C23.945,27.792,24.001,27.624,23.724,27.417z"/>
		<path d="M30.089,3.551H1.255C0.566,3.551,0,4.115,0,4.805v16.299c0,0.688,0.565,1.254,1.255,1.254h13.79v3.291
			c0,0.346,0.281,0.625,0.627,0.625c0.346,0,0.627-0.279,0.627-0.625v-3.291h13.79c0.688,0,1.255-0.565,1.255-1.254V4.805
			C31.344,4.115,30.777,3.551,30.089,3.551z M20.537,9.539l0.222,0.108l0.215-0.122l-0.034,0.244l0.184,0.166L20.88,9.979
			l-0.103,0.226L20.66,9.986l-0.244-0.028l0.172-0.178L20.537,9.539z M20.533,12.512l-0.117-0.575l0.529,0.256l0.509-0.291
			l-0.08,0.582l0.433,0.397l-0.578,0.103l-0.242,0.535L20.711,13l-0.584-0.067L20.533,12.512z M18.549,10.311l0.363,0.176
			l0.351-0.198l-0.057,0.399l0.297,0.271l-0.396,0.07l-0.166,0.366l-0.189-0.354l-0.4-0.046l0.28-0.29L18.549,10.311z M11.774,8.07
			l0.222,0.109l0.215-0.124L12.178,8.3l0.182,0.167l-0.243,0.044l-0.103,0.225l-0.116-0.218l-0.246-0.029l0.173-0.177L11.774,8.07z
			 M9.529,11.23l0.211-0.417l0.202,0.421l0.462,0.071l-0.337,0.323l0.075,0.46L9.73,11.867l-0.416,0.214l0.085-0.459l-0.333-0.33
			L9.529,11.23z M15.916,18.237c-0.09,0-0.176-0.01-0.259-0.025c-0.272,0.577-0.855,0.979-1.535,0.979
			c-0.463,0-0.881-0.184-1.189-0.483c-0.269,0.18-0.59,0.284-0.938,0.284c-0.567,0-1.066-0.28-1.377-0.707
			c-0.178,0.062-0.367,0.104-0.567,0.104c-0.942,0-1.705-0.764-1.705-1.703c0-0.901,0.701-1.633,1.586-1.694
			c0.17-0.764,0.849-1.336,1.663-1.336c0.546,0,1.025,0.263,1.338,0.66c0.332-0.276,0.753-0.447,1.219-0.447
			c0.976,0,1.772,0.732,1.891,1.676c0.688,0.064,1.229,0.637,1.229,1.341C17.27,17.632,16.663,18.237,15.916,18.237z M20.775,18.032
			c-1.389,0.801-2.957,0.986-4.403,0.652c0.807-0.205,1.405-0.932,1.405-1.801c0-0.83-0.539-1.535-1.305-1.771
			c-0.294-1.023-1.234-1.754-2.321-1.754c-0.407,0-0.799,0.101-1.152,0.298c-0.375-0.313-0.838-0.487-1.329-0.504
			c-0.143-2.233,0.953-4.46,3.022-5.655c0.961-0.557,2.01-0.813,3.043-0.811c-1.047,1.819-1.127,4.128-0.002,6.077
			c1.125,1.948,3.166,3.033,5.266,3.036C22.482,16.696,21.734,17.477,20.775,18.032z"/>
	</g>
</g>
</svg>