<?xml version="1.0"?>
<svg width="24" height="24" xmlns="http://www.w3.org/2000/svg" xmlns:svg="http://www.w3.org/2000/svg">

 <g class="layer">
  <title>Layer 1</title>
  <path d="m12,15a3,3 0 1 0 3,3a3,3 0 0 0 -3,-3zm0,4a1,1 0 1 1 1,-1a1,1 0 0 1 -1,1zm0,-8a7.06,7.06 0 0 0 -4.95,2.05a1,1 0 0 0 0,1.41a1,1 0 0 0 1.41,0a5,5 0 0 1 7.08,0a1,1 0 0 0 0.7,0.3a1,1 0 0 0 0.76,-1.71a7.06,7.06 0 0 0 -5,-2.05zm0,-4a11.08,11.08 0 0 0 -7.78,3.22a1,1 0 0 0 1.42,1.42a9,9 0 0 1 12.72,0a1,1 0 0 0 0.71,0.29a1,1 0 0 0 0.71,-0.29a1,1 0 0 0 0,-1.42a11.08,11.08 0 0 0 -7.78,-3.22zm10.61,0.39a15,15 0 0 0 -21.22,0a1,1 0 0 0 1.42,1.42a13,13 0 0 1 18.38,0a1,1 0 0 0 1.42,0a1,1 0 0 0 0,-1.42z" id="svg_1"/>
  <line fill="none" id="svg_2" stroke="#000000" stroke-width="2" x1="2.13" x2="21.03" y1="1.25" y2="20.47"/>
 </g>
</svg>