<svg xmlns="http://www.w3.org/2000/svg" viewBox="0 0 24 24" id="disconnect"><circle cx="12" cy="17.5" r="1.5"></circle><path d="m19.9 18.5.8-.8c.4-.4.4-1 0-1.4s-1-.4-1.4 0l-.8.8-.8-.8c-.4-.4-1-.4-1.4 0s-.4 1 0 1.4l.8.8-.8.8c-.4.4-.4 1 0 1.4.2.2.5.3.7.3s.5-.1.7-.3l.8-.8.8.8c.2.2.5.3.7.3s.5-.1.7-.3c.4-.4.4-1 0-1.4l-.8-.8zM12 12.2c-1.4 0-2.7.6-3.6 1.6-.4.4-.4 1 0 1.4.4.4 1 .4 1.4 0 1.2-1.3 3.2-1.3 4.3 0 .2.2.5.3.7.3.2 0 .5-.1.7-.3.4-.4.4-1 0-1.4-.8-1-2.1-1.6-3.5-1.6z"></path><path d="M16.8 12.2c.2.2.4.3.7.3.3 0 .5-.1.7-.3.4-.4.4-1 0-1.4-1.7-1.6-3.9-2.5-6.1-2.5s-4.5.9-6.1 2.5c-.4.4-.4 1 0 1.4.4.4 1 .4 1.4 0 1.3-1.3 3-2 4.8-2s3.2.7 4.6 2z"></path><path d="M19.3 9.2c.2.2.4.3.7.3.3 0 .5-.1.7-.3.4-.4.3-1-.1-1.4-2.4-2.2-5.5-3.4-8.7-3.4S5.8 5.5 3.3 7.7c-.4.4-.4 1-.1 1.4.4.4 1 .4 1.4.1C6.8 7.3 9.3 6.3 12 6.3s5.2 1 7.3 2.9z"></path></svg>