<?xml version="1.0" standalone="no"?>
<!DOCTYPE svg PUBLIC "-//W3C//DTD SVG 20010904//EN"
 "http://www.w3.org/TR/2001/REC-SVG-20010904/DTD/svg10.dtd">
<svg version="1.0" xmlns="http://www.w3.org/2000/svg"
 width="256.000000pt" height="256.000000pt" viewBox="0 0 256.000000 256.000000"
 preserveAspectRatio="xMidYMid meet">

<g transform="translate(0.000000,256.000000) scale(0.100000,-0.100000)"
fill="#000000" stroke="none">
<path d="M520 2307 c-49 -25 -34 -138 37 -281 19 -39 46 -85 58 -102 18 -23
22 -38 17 -62 l-7 -31 -55 35 c-75 47 -166 74 -254 74 -127 0 -131 -10 -15
-40 183 -47 329 -120 329 -165 l0 -24 -45 25 c-156 88 -349 104 -486 42 l-51
-23 119 3 c127 4 193 -5 312 -40 70 -21 73 -22 45 -31 -16 -5 -71 -8 -122 -7
-103 1 -178 -16 -232 -52 -53 -36 -49 -47 12 -31 73 19 244 30 234 15 -4 -7
-16 -12 -28 -12 -35 0 -88 -31 -103 -61 -47 -91 16 -184 120 -178 29 2 50 -2
62 -13 47 -41 120 -51 161 -22 l22 15 0 -526 0 -526 25 -24 24 -25 581 0 581
0 24 25 25 24 0 526 0 526 22 -15 c41 -29 114 -19 161 22 12 11 33 15 62 13
79 -5 135 44 135 116 0 21 -8 48 -18 60 -21 26 -81 63 -104 63 -9 0 -20 5 -24
12 -10 15 161 4 234 -15 61 -16 65 -5 12 31 -54 36 -129 53 -232 52 -51 -1
-106 2 -122 7 -28 9 -25 10 45 31 119 35 185 44 312 40 l119 -3 -51 23 c-129
59 -285 51 -448 -24 -72 -32 -73 -32 -73 -10 0 41 157 117 330 159 106 26 99
37 -26 37 -85 0 -179 -26 -247 -70 -26 -16 -49 -30 -51 -30 -2 0 -7 11 -10 26
-5 17 0 34 12 52 87 123 150 346 107 382 -39 32 -203 1 -338 -65 l-68 -34 -52
23 c-99 44 -184 60 -317 60 -132 0 -199 -13 -312 -58 l-59 -24 -67 33 c-129
63 -276 96 -322 72z m576 -396 c106 -48 137 -182 61 -268 -134 -152 -380 5
-288 185 23 45 46 66 91 86 47 20 87 19 136 -3z m501 8 c99 -37 143 -162 89
-253 -71 -121 -248 -111 -307 18 -23 50 -24 85 -4 133 21 50 42 72 90 94 45
21 91 24 132 8z m-230 -391 c25 -20 0 -28 -82 -28 -83 0 -107 8 -82 28 25 21
138 20 164 0z m-319 -471 c84 -85 152 -160 152 -168 0 -8 -72 -86 -159 -173
-153 -153 -161 -159 -185 -148 -49 22 -35 49 104 187 l130 129 -130 132 c-127
128 -145 155 -118 182 29 29 55 11 206 -141z m700 -419 c15 -15 15 -51 0 -66
-9 -9 -73 -12 -228 -12 -227 0 -240 2 -240 45 0 43 13 45 240 45 155 0 219 -3
228 -12z"/>
</g>
</svg>
