<?xml version="1.0" standalone="no"?>
<!DOCTYPE svg PUBLIC "-//W3C//DTD SVG 20010904//EN"
 "http://www.w3.org/TR/2001/REC-SVG-20010904/DTD/svg10.dtd">
<svg version="1.0" xmlns="http://www.w3.org/2000/svg"
 width="1024.000000pt" height="888.000000pt" viewBox="0 0 1024.000000 888.000000"
 preserveAspectRatio="xMidYMid meet">

<g transform="translate(0.000000,888.000000) scale(0.100000,-0.100000)"
fill="#000000" stroke="none">
<path d="M2615 8873 l-60 -4 -36 -62 c-19 -34 -81 -141 -137 -238 -56 -97
-102 -179 -102 -183 0 -5 329 -581 602 -1055 27 -47 50 -90 51 -96 1 -7 -226
-10 -666 -10 l-668 0 -175 -310 c-97 -170 -222 -392 -279 -492 l-104 -183
2485 0 2485 0 -16 28 c-9 15 -136 234 -283 487 l-267 460 -190 6 c-105 4 -413
7 -685 8 l-495 1 -81 143 c-44 78 -242 423 -439 767 -197 344 -373 650 -390
680 l-31 55 -229 1 c-127 0 -257 -1 -290 -3z"/>
<path d="M8360 6473 c-190 -328 -372 -644 -406 -702 -33 -58 -256 -443 -494
-856 -238 -412 -458 -793 -488 -845 -30 -52 -87 -151 -127 -220 -259 -448
-594 -1029 -604 -1047 l-12 -23 568 0 568 1 200 346 c110 190 263 454 340 586
l140 241 950 -3 950 -3 131 229 c72 125 137 238 143 250 14 27 11 33 -152 313
l-113 195 -667 3 c-367 1 -667 6 -667 11 0 7 215 380 542 940 65 112 120 207
121 210 3 9 -565 971 -573 971 -3 0 -161 -269 -350 -597z"/>
<path d="M3106 4291 c-9 -17 -136 -239 -282 -493 -146 -254 -263 -467 -260
-473 4 -12 131 -233 507 -886 87 -152 159 -281 159 -286 0 -6 -21 -47 -46 -90
-26 -43 -86 -145 -134 -228 -48 -82 -241 -414 -429 -738 l-342 -587 97 -168
c54 -92 118 -203 144 -247 l47 -80 283 0 284 0 82 140 c45 77 195 333 332 570
137 237 253 430 258 429 10 -1 26 -28 407 -694 143 -250 261 -455 261 -456 4
-5 1116 13 1121 18 6 6 -232 422 -1165 2038 -37 63 -100 174 -142 245 -311
539 -1093 1893 -1126 1949 l-40 69 -16 -32z"/>
</g>
</svg>
