<?xml version="1.0" standalone="no"?>
<!DOCTYPE svg PUBLIC "-//W3C//DTD SVG 20010904//EN"
 "http://www.w3.org/TR/2001/REC-SVG-20010904/DTD/svg10.dtd">
<svg version="1.0" xmlns="http://www.w3.org/2000/svg"
 width="900.000000pt" height="512.000000pt" viewBox="0 0 900.000000 512.000000"
 preserveAspectRatio="xMidYMid meet">

<g transform="translate(0.000000,512.000000) scale(0.100000,-0.100000)"
fill="#000000" stroke="none">
<path d="M2245 4676 c-144 -46 -253 -159 -290 -302 -14 -54 -15 -249 -13
-1735 l3 -1674 36 -75 c59 -122 155 -202 284 -236 35 -10 121 -14 286 -14
l236 0 5 -77 c5 -71 8 -79 37 -105 l31 -28 358 0 c396 0 390 -1 418 66 8 18
14 58 14 89 l0 55 849 0 849 0 4 -76 c3 -71 6 -78 36 -105 l32 -29 360 0 360
0 32 29 c30 27 33 34 36 104 l4 76 262 3 262 3 76 38 c96 47 158 109 206 206
l37 75 3 1455 c2 1017 -1 1472 -8 1508 -35 165 -168 296 -338 332 -37 8 -386
11 -1165 11 l-1111 0 -211 210 -211 210 -865 -1 c-669 0 -873 -3 -904 -13z
m1840 -356 l160 -160 -160 -160 -160 -160 -888 0 -889 0 4 243 3 244 30 48
c22 36 45 57 84 77 l53 28 802 0 801 0 160 -160z m1790 -1997 c50 -27 80 -58
100 -105 13 -33 15 -135 15 -808 l0 -770 -210 0 -210 0 0 593 c0 544 -1 595
-18 627 -9 19 -28 40 -42 47 -19 10 -242 13 -1008 13 -1090 0 -1029 4 -1058
-65 -12 -28 -14 -137 -14 -625 l0 -590 -210 0 -210 0 2 784 3 784 30 43 c32
46 77 77 128 89 18 5 624 7 1347 7 l1315 -2 40 -22z"/>
<path d="M2434 4260 c-66 -27 -84 -117 -35 -172 l29 -33 680 0 c676 0 681 0
709 21 55 41 55 127 0 168 -28 21 -35 21 -695 23 -367 1 -677 -2 -688 -7z"/>
</g>
</svg>
