<?xml version="1.0" standalone="no"?>
<!DOCTYPE svg PUBLIC "-//W3C//DTD SVG 20010904//EN"
 "http://www.w3.org/TR/2001/REC-SVG-20010904/DTD/svg10.dtd">
<svg version="1.0" xmlns="http://www.w3.org/2000/svg"
 width="520.000000pt" height="332.000000pt" viewBox="0 0 520.000000 332.000000"
 preserveAspectRatio="xMidYMid meet">

<g transform="translate(0.000000,332.000000) scale(0.100000,-0.100000)"
fill="#000000" stroke="none">
<path d="M425 3308 c-197 -37 -378 -222 -414 -422 -8 -41 -11 -438 -11 -1230
0 -1269 -1 -1229 55 -1348 67 -141 210 -254 363 -287 36 -7 254 -11 687 -11
l635 0 0 90 0 90 -640 0 c-622 0 -641 1 -695 21 -73 27 -156 104 -192 177
l-28 57 -3 1043 -2 1042 1582 -2 1583 -3 3 -925 c1 -509 0 -935 -3 -948 -5
-21 -10 -23 -73 -20 l-67 3 -5 193 -5 194 -28 24 c-45 38 -105 27 -132 -26
-14 -26 -15 -88 -13 -494 l3 -464 24 -26 c17 -18 35 -26 57 -26 86 0 94 22 94
260 l0 191 73 -3 72 -3 5 -203 c5 -199 6 -204 29 -223 28 -23 78 -25 108 -4
12 9 27 32 32 53 7 25 9 487 5 1417 -6 1515 -2 1427 -67 1550 -39 73 -125 161
-199 203 -31 18 -91 41 -134 52 -75 19 -111 20 -1363 19 -762 -1 -1306 -5
-1336 -11z m2717 -201 c121 -60 192 -169 204 -314 l7 -83 -1588 0 -1588 0 5
83 c9 165 99 285 251 333 34 10 288 12 1347 11 l1305 -2 57 -28z"/>
<path d="M649 1996 c-283 -336 -287 -341 -268 -361 17 -17 21 -18 32 -5 8 8
132 157 277 330 145 173 270 322 277 331 12 14 11 18 -9 31 -23 14 -29 7 -309
-326z"/>
<path d="M454 2316 c-65 -29 -106 -117 -86 -185 24 -78 81 -123 158 -123 97 0
172 83 161 179 -12 110 -128 174 -233 129z m126 -96 c36 -36 21 -102 -27 -121
-35 -13 -77 4 -92 37 -16 35 -14 48 10 78 26 33 79 36 109 6z"/>
<path d="M745 1936 c-37 -16 -82 -68 -91 -102 -10 -40 2 -114 23 -143 10 -14
40 -37 66 -50 66 -32 123 -24 176 27 87 83 70 210 -35 262 -46 23 -96 25 -139
6z m112 -91 c49 -34 31 -117 -28 -130 -45 -10 -83 20 -87 68 -6 64 61 100 115
62z"/>
<path d="M1210 1650 l0 -30 200 0 200 0 0 30 0 30 -200 0 -200 0 0 -30z"/>
<path d="M1985 1058 c-31 -18 -44 -40 -45 -75 0 -75 32 -93 165 -93 70 0 95
-3 95 -13 0 -7 -58 -159 -130 -337 -127 -316 -130 -326 -130 -400 0 -70 2 -78
28 -103 l28 -27 193 0 c190 0 192 0 216 25 36 35 34 88 -4 126 -29 29 -30 29
-155 29 -69 0 -126 2 -126 5 0 3 70 179 155 390 85 211 155 394 155 407 -1 27
-17 50 -47 66 -30 16 -370 16 -398 0z"/>
<path d="M3590 1051 c-6 -13 -10 -191 -10 -511 0 -320 4 -498 10 -511 10 -18
23 -19 201 -19 l191 0 29 29 c36 37 38 79 5 118 -23 27 -29 28 -138 33 l-113
5 0 135 0 135 105 3 c117 2 143 11 161 53 12 31 -1 81 -25 97 -6 4 -63 9 -126
12 l-115 5 -3 128 -3 127 96 0 c104 0 156 15 174 48 19 36 13 72 -18 103 l-29
29 -191 0 c-178 0 -191 -1 -201 -19z"/>
<path d="M4129 1041 l-29 -30 2 -498 3 -498 223 -3 c148 -1 230 1 243 9 11 6
27 26 35 45 12 29 12 39 0 68 -8 18 -20 37 -27 42 -8 5 -79 11 -159 14 l-145
5 -5 420 c-3 231 -7 421 -8 422 -11 11 -65 33 -82 33 -12 0 -35 -13 -51 -29z"/>
<path d="M4718 1054 c-15 -8 -30 -25 -33 -37 -3 -12 -4 -242 -3 -512 l3 -490
223 -3 223 -2 30 29 c38 39 40 88 3 124 -25 26 -30 27 -168 29 l-141 3 -5 413
-5 414 -28 24 c-32 27 -60 30 -99 8z"/>
<path d="M2602 1041 c-34 -16 -48 -31 -65 -68 -19 -43 -22 -64 -22 -193 0
-195 7 -206 169 -295 108 -59 116 -71 116 -177 0 -117 -6 -128 -74 -128 -32 0
-58 5 -64 13 -6 7 -14 43 -18 80 -6 56 -11 71 -32 87 -28 23 -41 24 -76 9 -38
-18 -50 -59 -43 -150 13 -166 58 -208 222 -209 114 0 156 12 193 54 39 45 52
108 52 259 0 191 -11 210 -152 283 -132 69 -138 76 -138 174 0 104 8 120 63
120 59 0 69 -10 78 -77 6 -41 14 -63 30 -75 30 -25 71 -22 97 5 19 20 22 35
22 103 0 92 -22 152 -66 181 -44 28 -234 31 -292 4z"/>
</g>
</svg>
